<svg width="886" height="886" viewBox="0 0 886 886" fill="none" xmlns="http://www.w3.org/2000/svg">
<mask id="mask0_2_6" style="mask-type:alpha" maskUnits="userSpaceOnUse" x="0" y="0" width="886" height="886">
<circle cx="443" cy="443" r="443" fill="#FFABD2"/>
</mask>
<g mask="url(#mask0_2_6)">
<path d="M-12 12L453 477.5L918 12V943L453 477.5L-12 943V12Z" fill="url(#paint0_linear_2_6)"/>
<circle cx="443" cy="443" r="415" fill="#322631"/>
</g>
<g clip-path="url(#clip0_2_6)" filter="url(#filter0_d_2_6)">
<path d="M453.005 159V446.456C453.005 446.456 334.139 445.921 271.436 383.256C251.299 353.681 238.214 318.927 234.571 281.408C258.407 283.056 281.202 288.5 302.353 297.131C340.461 312.678 373.246 338.576 397.207 371.323C374.906 331.209 340.445 298.784 298.804 279.011C297.134 268.086 296.265 256.892 296.265 245.494C296.265 238.163 296.624 230.915 297.327 223.771C297.504 221.914 297.712 220.074 297.941 218.233C319.326 227.733 338.915 240.539 356.06 256.003H356.065C379.36 277.009 398.153 302.908 410.813 332.082C411.557 333.788 412.275 335.509 412.972 337.235C412.077 334.011 411.109 330.814 410.074 327.652C398.976 293.715 379.864 263.407 354.972 238.964C354.926 237.076 354.905 235.189 354.905 233.296C354.905 214.515 357.257 196.291 361.679 178.888C382.591 195.823 400.339 216.507 413.898 239.92C425.808 260.464 434.487 283.113 439.243 307.161C438.566 292.878 436.532 278.948 433.259 265.507C432.567 262.663 431.823 259.845 431.017 257.053C431.011 257.027 431.006 257.006 431.006 256.996C431.001 256.98 431.001 256.975 431.001 256.975C427.723 245.531 423.54 234.477 418.539 223.88C426.381 200.222 438.124 178.342 453.005 159Z" fill="url(#paint1_linear_2_6)"/>
<path d="M671.434 281.408C664.233 355.636 620.042 419.039 557.511 452.982C548.712 457.76 539.555 461.951 530.08 465.508C528.415 466.137 526.739 466.74 525.053 467.322C523.269 467.951 521.479 468.544 519.673 469.116C513.804 470.993 507.821 472.626 501.743 474.009C501.415 474.082 501.088 474.16 500.765 474.227C500.312 474.331 499.86 474.43 499.402 474.529C494.547 475.574 489.625 476.463 484.651 477.181C483.496 477.352 482.341 477.513 481.18 477.659C476.669 478.246 472.116 478.688 467.522 478.99C463.594 479.25 459.634 479.406 455.643 479.463C454.831 479.474 454.02 479.479 453.198 479.479H452.802C451.985 479.479 451.174 479.474 450.362 479.463C446.371 479.406 442.412 479.25 438.483 478.99C433.889 478.688 429.331 478.246 424.82 477.659C423.659 477.513 422.504 477.352 421.349 477.181C416.38 476.463 411.458 475.574 406.603 474.529C406.146 474.43 405.693 474.331 405.235 474.227C404.912 474.16 404.59 474.082 404.262 474.009C398.185 472.626 392.201 470.993 386.332 469.116C384.521 468.544 382.731 467.946 380.947 467.322C379.261 466.74 377.591 466.137 375.92 465.508C366.451 461.951 357.293 457.76 348.494 452.982C317.567 436.198 291.13 412.207 271.436 383.256C334.139 445.921 453.005 446.456 453.005 446.456V159C467.881 178.342 479.625 200.217 487.461 223.869C482.46 234.466 478.277 245.531 474.999 256.975C474.999 256.975 474.999 256.985 474.994 257.006C474.994 257.017 474.989 257.032 474.983 257.048C474.177 259.85 473.422 262.684 472.736 265.533C469.468 278.969 467.434 292.888 466.757 307.161C471.513 283.108 480.192 260.459 492.102 239.915C505.661 216.507 523.409 195.823 544.321 178.883C548.749 196.286 551.1 214.515 551.1 233.296C551.1 235.189 551.08 237.076 551.033 238.964C526.141 263.407 507.03 293.715 495.931 327.642C494.901 330.798 493.933 333.98 493.049 337.193C493.741 335.472 494.459 333.762 495.198 332.067C507.857 302.897 526.651 276.993 549.945 255.997C567.09 240.534 586.68 227.728 608.065 218.228C608.294 220.069 608.496 221.914 608.679 223.771C609.381 230.915 609.74 238.163 609.74 245.494C609.74 256.892 608.876 268.081 607.206 279.005C565.555 298.779 531.084 331.214 508.788 371.339C532.744 338.592 565.534 312.688 603.647 297.136C624.798 288.505 647.588 283.066 671.434 281.408Z" fill="url(#paint2_linear_2_6)"/>
<path d="M329.737 535.67C306.791 547.224 276.691 548.414 276.035 548.44C275.26 548.149 274.49 547.842 273.725 547.536C271.503 546.641 269.308 545.705 267.138 544.723C261.373 542.107 255.779 539.18 250.384 535.946C207.556 510.364 177.076 466.277 170 414.734C181.093 433.988 195.787 450.897 213.176 464.541C252.746 529.353 329.737 535.67 329.737 535.67Z" fill="url(#paint3_linear_2_6)"/>
<path d="M400.094 658.343C385.276 674.097 382.783 692.987 382.783 692.987C379.948 693.554 377.029 693.851 374.026 693.851C365.405 693.851 357.361 691.396 350.555 687.138C348.401 685.791 346.372 684.268 344.488 682.578C340.102 678.668 336.501 673.895 333.962 668.524H333.957C333.749 668.092 333.556 667.671 333.369 667.239C332.958 666.298 332.578 665.336 332.235 664.364C374.261 682.651 399.527 658.884 400.094 658.343Z" fill="url(#paint4_linear_2_6)"/>
<path d="M442.188 781C441.485 780.766 440.783 780.527 440.096 780.282H440.091C427.041 775.603 415.444 767.892 406.14 758.002C384.646 702.83 427.515 678.158 427.515 678.158C423.524 702.164 425.543 717.737 425.543 717.737C425.075 721.403 424.825 725.146 424.825 728.947C424.825 747.858 430.881 765.354 441.163 779.612C441.501 780.08 441.839 780.542 442.188 781Z" fill="url(#paint5_linear_2_6)"/>
<path d="M499.865 757.992H499.86C490.562 767.892 478.959 775.603 465.909 780.282C465.217 780.527 464.52 780.766 463.812 781C464.161 780.542 464.499 780.08 464.837 779.612C475.119 765.354 481.175 747.858 481.175 728.947C481.175 725.146 480.925 721.403 480.457 717.737C480.457 717.737 482.476 702.164 478.485 678.158C478.485 678.158 521.343 702.83 499.865 757.992Z" fill="url(#paint6_linear_2_6)"/>
<path d="M573.776 664.359C573.427 665.336 573.047 666.298 572.636 667.239C572.47 667.619 572.303 667.993 572.121 668.368C568.484 676.115 562.662 682.635 555.45 687.133C548.644 691.396 540.6 693.851 531.979 693.851C528.977 693.851 526.052 693.549 523.222 692.982C523.222 692.982 520.724 674.097 505.901 658.343C506.468 658.884 531.745 682.656 573.776 664.359Z" fill="url(#paint7_linear_2_6)"/>
<path d="M736 414.734C731.374 448.453 716.727 478.98 695.16 503.225C679.613 520.716 660.46 534.932 638.867 544.723C635.948 546.043 632.983 547.291 629.97 548.44C629.97 548.44 599.464 547.354 576.258 535.67C576.258 535.67 653.254 529.353 692.824 464.541C710.213 450.897 724.912 433.983 736 414.734Z" fill="url(#paint8_linear_2_6)"/>
<path d="M717.883 374.999C717.883 384.738 717.076 394.284 715.52 403.571C711.852 425.591 704.001 446.191 692.824 464.54C653.254 529.353 576.258 535.67 576.258 535.67C599.464 547.353 629.97 548.44 629.97 548.44C633.362 548.965 636.791 549.386 640.241 549.709C645.585 550.208 650.996 550.463 656.47 550.463C660.83 550.463 665.148 550.302 669.431 549.984C661.012 555.132 652.099 559.562 642.785 563.176C639.471 564.465 636.099 565.656 632.681 566.737C632.665 566.743 632.644 566.748 632.629 566.753C595.92 576.294 585.982 569.119 544.024 560.098C502.045 551.066 484.505 584.525 483.709 610.543C482.923 636.156 460.029 661.884 459.311 662.679C459.301 662.695 459.296 662.7 459.296 662.7C457.849 664.078 456.366 665.414 454.847 666.714C454.405 667.094 453.957 667.468 453.51 667.842C454.067 667.577 454.613 667.296 455.159 667.021C459.426 664.853 463.516 662.378 467.408 659.638C472.491 656.055 477.226 652.005 481.55 647.549C484.146 644.881 486.586 642.063 488.871 639.12C489.453 638.371 490.026 637.612 490.588 636.843C491.524 635.564 492.43 634.259 493.298 632.927C495.905 628.986 498.236 624.842 500.266 620.532C500.359 620.516 500.463 620.506 500.562 620.49C503.008 628.513 506.993 635.87 512.191 642.209C520.912 652.863 533.045 660.636 546.912 663.865C547.656 664.042 548.4 664.203 549.16 664.348C553.124 665.123 557.23 665.529 561.418 665.529C561.855 665.529 562.282 665.523 562.709 665.513C563.39 665.503 564.072 665.482 564.754 665.445C565.118 665.425 565.487 665.404 565.851 665.383C567.376 665.284 568.895 665.128 570.394 664.915C571.528 664.764 572.657 664.577 573.771 664.359C531.739 682.656 506.462 658.884 505.895 658.343C520.719 674.097 523.217 692.982 523.217 692.982C523.253 693.549 523.284 694.121 523.31 694.698C523.373 695.998 523.399 697.303 523.399 698.613C523.399 721.585 514.46 742.471 499.86 757.992C521.338 702.83 478.48 678.158 478.48 678.158C482.471 702.165 480.452 717.737 480.452 717.737C477.767 738.535 467.709 757.02 452.995 770.502C438.28 757.02 428.223 738.535 425.538 717.737C425.538 717.737 423.519 702.165 427.51 678.158C427.51 678.158 384.641 702.83 406.135 758.002C391.54 742.482 382.596 721.59 382.596 698.613C382.596 697.303 382.622 695.998 382.684 694.698C382.71 694.121 382.742 693.554 382.778 692.987C382.778 692.987 385.27 674.097 400.089 658.343C399.522 658.884 374.255 682.651 332.229 664.364C332.224 664.353 332.224 664.343 332.219 664.333C333.405 664.561 334.592 664.764 335.799 664.925C338.666 665.326 341.595 665.529 344.576 665.529C348.765 665.529 352.865 665.123 356.83 664.348C357.584 664.203 358.339 664.042 359.083 663.865C364.156 662.684 369.011 660.891 373.532 658.566C381.373 654.552 388.273 648.963 393.798 642.209C398.996 635.87 402.982 628.513 405.422 620.49C405.526 620.506 405.63 620.516 405.729 620.532C407.758 624.842 410.09 628.991 412.696 632.933C413.565 634.253 414.46 635.543 415.386 636.812C415.392 636.822 415.402 636.832 415.407 636.843C415.964 637.607 416.536 638.361 417.114 639.11C417.114 639.11 417.116 639.113 417.119 639.12C419.408 642.068 421.849 644.886 424.44 647.549C424.44 647.549 424.442 647.55 424.445 647.554C428.769 652.005 433.504 656.05 438.582 659.632C442.474 662.378 446.564 664.847 450.835 667.021C451.387 667.302 451.944 667.582 452.5 667.848C452.048 667.473 451.595 667.094 451.153 666.709C449.628 665.404 448.14 664.062 446.683 662.679C445.965 661.884 423.071 636.156 422.286 610.543C421.484 584.52 403.95 551.066 361.971 560.098C320.023 569.119 310.08 576.284 273.392 566.758C273.392 566.758 273.389 566.756 273.382 566.753C272.201 566.389 271.025 565.999 269.859 565.599C267.622 564.84 265.405 564.028 263.215 563.176C254.146 559.656 245.461 555.371 237.24 550.39C238.921 550.437 240.612 550.463 242.308 550.463C243.495 550.463 244.681 550.452 245.857 550.421C247.08 550.452 248.302 550.463 249.53 550.463C255.004 550.463 260.415 550.208 265.759 549.709C269.204 549.386 272.632 548.965 276.02 548.44H276.03C276.686 548.414 306.786 547.223 329.732 535.67C329.732 535.67 252.741 529.353 213.171 464.54C197.275 438.444 188.117 407.793 188.117 374.999C188.117 354.118 191.827 334.105 198.633 315.584C213.774 384.993 256.659 444.044 315.095 480.55C325.205 486.867 335.773 492.504 346.746 497.407C347.709 497.838 348.671 498.259 349.639 498.681C349.676 498.696 349.712 498.712 349.748 498.722C353.011 500.131 356.31 501.478 359.64 502.757C361.783 503.579 363.948 504.379 366.123 505.144C369.494 506.334 372.903 507.457 376.337 508.508C380.239 509.714 384.188 510.822 388.163 511.83C394.319 513.406 400.552 514.758 406.869 515.875C410.188 516.479 413.539 517.004 416.906 517.467C418.342 517.664 419.783 517.851 421.229 518.028C423.051 518.246 424.877 518.449 426.708 518.626C430.72 519.032 434.773 519.338 438.842 519.557C440.944 519.666 443.062 519.754 445.18 519.812C446.189 519.843 447.198 519.864 448.213 519.879C448.754 519.89 449.29 519.9 449.831 519.9C450.305 519.905 450.783 519.91 451.257 519.91C451.434 519.91 451.611 519.91 451.788 519.91C452.194 520.175 452.594 520.43 452.995 520.685C453.401 520.43 453.801 520.175 454.207 519.91C454.384 519.91 454.556 519.91 454.733 519.91C455.211 519.91 455.69 519.905 456.164 519.9C456.705 519.9 457.241 519.89 457.782 519.879C458.796 519.864 459.806 519.843 460.815 519.812C467.033 519.635 473.188 519.24 479.286 518.626C482.57 518.309 485.837 517.919 489.089 517.467C506.634 515.049 523.617 510.879 539.867 505.144C544.087 503.657 548.254 502.06 552.37 500.36C553.666 499.825 554.961 499.279 556.246 498.722C556.283 498.712 556.319 498.696 556.356 498.681C568.364 493.486 579.9 487.418 590.894 480.55C607.008 470.483 621.941 458.696 635.433 445.453H635.438C648.03 433.104 659.363 419.486 669.238 404.803C687.163 378.145 700.285 347.998 707.357 315.579C710.557 324.304 713.075 333.351 714.839 342.668C716.832 353.14 717.872 363.95 717.872 374.999H717.883Z" fill="white"/>
<path d="M632.629 566.753C627.493 568.38 622.243 569.758 616.905 570.897C609.969 572.369 602.882 573.414 595.655 573.991C591.107 574.365 586.513 574.552 581.872 574.552C572.475 574.552 563.25 573.783 554.274 572.291C552.724 571.937 551.142 571.656 549.539 571.443C547.214 571.131 544.841 570.97 542.432 570.97C530.08 570.97 518.705 575.171 509.668 582.216C509.652 582.227 509.642 582.237 509.626 582.248C505.24 585.669 501.415 589.766 498.283 594.373C495.749 598.096 493.678 602.162 492.159 606.493C492.117 606.592 492.081 606.691 492.05 606.789C491.373 608.718 490.811 610.705 490.369 612.738C490.343 612.868 490.307 612.998 490.281 613.123C490.166 613.518 490.036 613.918 489.906 614.308C488.891 617.428 487.741 620.495 486.482 623.49C486.03 624.556 485.567 625.607 485.083 626.652C480.452 636.76 474.416 646.088 467.231 654.396C466.601 655.124 465.966 655.837 465.316 656.544C463.391 658.665 461.387 660.714 459.311 662.679C460.029 661.884 482.923 636.156 483.709 610.544C484.505 584.525 502.045 551.066 544.024 560.098C585.982 569.119 595.92 576.294 632.629 566.753Z" fill="url(#paint9_linear_2_6)"/>
<path d="M446.689 662.679C444.612 660.709 442.609 658.66 440.684 656.539C440.039 655.832 439.415 655.13 438.785 654.407C438.785 654.407 438.785 654.402 438.78 654.402C431.589 646.093 425.553 636.76 420.922 626.652C420.439 625.607 419.981 624.556 419.528 623.496C418.258 620.496 417.114 617.428 416.099 614.308C415.974 613.934 415.855 613.565 415.74 613.185C415.709 613.024 415.667 612.873 415.636 612.717C415.194 610.684 414.632 608.698 413.955 606.769C413.799 606.311 413.633 605.864 413.466 605.412C411.978 601.476 410.043 597.758 407.717 594.342C407.717 594.342 407.717 594.337 407.712 594.337C404.98 590.317 401.723 586.704 398.034 583.574C397.493 583.111 396.941 582.664 396.379 582.227C396.364 582.216 396.353 582.206 396.338 582.191C388.533 576.112 378.99 572.155 368.579 571.178C366.929 571.032 365.259 570.949 363.573 570.949C361.268 570.949 358.989 571.095 356.762 571.381C356.752 571.386 356.741 571.396 356.726 571.386C354.936 571.62 353.167 571.932 351.445 572.343C351.429 572.348 351.413 572.353 351.398 572.348C350.862 572.436 350.326 572.525 349.79 572.603C349.769 572.608 349.748 572.613 349.722 572.613C349.171 572.701 348.619 572.779 348.068 572.852C346.949 573.019 345.83 573.169 344.707 573.304C344.322 573.351 343.936 573.393 343.551 573.44C343.109 573.492 342.677 573.538 342.24 573.585C342.173 573.596 342.11 573.606 342.048 573.606C341.579 573.658 341.122 573.705 340.653 573.746C340.31 573.788 339.966 573.819 339.623 573.845C339.056 573.897 338.489 573.944 337.922 573.996C337.563 574.022 337.198 574.053 336.839 574.074C336.231 574.121 335.617 574.168 335.003 574.204C334.545 574.235 334.087 574.261 333.629 574.282C332.453 574.355 331.282 574.407 330.106 574.443C329.831 574.454 329.56 574.464 329.284 574.469C328.79 574.485 328.306 574.5 327.812 574.506C327.625 574.516 327.442 574.521 327.255 574.521C326.86 574.532 326.459 574.537 326.058 574.537C325.418 574.547 324.773 574.552 324.133 574.552C319.492 574.552 314.898 574.365 310.35 573.991C303.123 573.414 296.036 572.369 289.1 570.897C283.762 569.764 278.522 568.386 273.397 566.758C310.085 576.284 320.028 569.119 361.976 560.098C403.955 551.066 421.49 584.52 422.291 610.544C423.077 636.157 445.97 661.884 446.689 662.679Z" fill="url(#paint10_linear_2_6)"/>
</g>
<defs>
<filter id="filter0_d_2_6" x="166" y="159" width="574" height="630" filterUnits="userSpaceOnUse" color-interpolation-filters="sRGB">
<feFlood flood-opacity="0" result="BackgroundImageFix"/>
<feColorMatrix in="SourceAlpha" type="matrix" values="0 0 0 0 0 0 0 0 0 0 0 0 0 0 0 0 0 0 127 0" result="hardAlpha"/>
<feOffset dy="4"/>
<feGaussianBlur stdDeviation="2"/>
<feComposite in2="hardAlpha" operator="out"/>
<feColorMatrix type="matrix" values="0 0 0 0 0 0 0 0 0 0 0 0 0 0 0 0 0 0 0.25 0"/>
<feBlend mode="normal" in2="BackgroundImageFix" result="effect1_dropShadow_2_6"/>
<feBlend mode="normal" in="SourceGraphic" in2="effect1_dropShadow_2_6" result="shape"/>
</filter>
<linearGradient id="paint0_linear_2_6" x1="453" y1="12" x2="452.015" y2="1273.47" gradientUnits="userSpaceOnUse">
<stop offset="0.104" stop-color="#FFD8BE"/>
<stop offset="1" stop-color="#FF0088"/>
</linearGradient>
<linearGradient id="paint1_linear_2_6" x1="303.539" y1="212.488" x2="495.205" y2="404.287" gradientUnits="userSpaceOnUse">
<stop stop-color="white"/>
<stop offset="0.57" stop-color="#F38CB9"/>
</linearGradient>
<linearGradient id="paint2_linear_2_6" x1="671.434" y1="319.239" x2="271.436" y2="319.239" gradientUnits="userSpaceOnUse">
<stop stop-color="#F4C9DB"/>
<stop offset="0.07" stop-color="#F3C2D7"/>
<stop offset="0.16" stop-color="#F3B0CD"/>
<stop offset="0.27" stop-color="#F291BC"/>
<stop offset="0.3" stop-color="#F288B7"/>
<stop offset="0.58" stop-color="#EF599F"/>
</linearGradient>
<linearGradient id="paint3_linear_2_6" x1="170" y1="481.585" x2="329.737" y2="481.585" gradientUnits="userSpaceOnUse">
<stop offset="0.37" stop-color="#F1F2F2"/>
<stop offset="0.86" stop-color="#B4BDBC"/>
</linearGradient>
<linearGradient id="paint4_linear_2_6" x1="348.994" y1="687.185" x2="388.947" y2="647.204" gradientUnits="userSpaceOnUse">
<stop offset="0.32" stop-color="#F1F2F2"/>
<stop offset="0.91" stop-color="#B4BDBC"/>
</linearGradient>
<linearGradient id="paint5_linear_2_6" x1="421.146" y1="781" x2="421.146" y2="678.158" gradientUnits="userSpaceOnUse">
<stop offset="0.58" stop-color="#F1F2F2"/>
<stop offset="0.91" stop-color="#B4BDBC"/>
</linearGradient>
<linearGradient id="paint6_linear_2_6" x1="484.851" y1="730" x2="484.851" y2="678.158" gradientUnits="userSpaceOnUse">
<stop stop-color="#F1F2F2"/>
<stop offset="1" stop-color="#B4BDBC"/>
</linearGradient>
<linearGradient id="paint7_linear_2_6" x1="553.921" y1="688.053" x2="529.065" y2="644.975" gradientUnits="userSpaceOnUse">
<stop offset="0.32" stop-color="#F1F2F2"/>
<stop offset="0.91" stop-color="#B4BDBC"/>
</linearGradient>
<linearGradient id="paint8_linear_2_6" x1="736" y1="481.585" x2="576.258" y2="481.585" gradientUnits="userSpaceOnUse">
<stop offset="0.34" stop-color="#F1F2F2"/>
<stop offset="0.86" stop-color="#B4BDBC"/>
</linearGradient>
<linearGradient id="paint9_linear_2_6" x1="545.97" y1="662.679" x2="545.97" y2="558.59" gradientUnits="userSpaceOnUse">
<stop offset="0.58" stop-color="#F1F2F2"/>
<stop offset="0.91" stop-color="#B4BDBC"/>
</linearGradient>
<linearGradient id="paint10_linear_2_6" x1="360.04" y1="662.679" x2="360.04" y2="558.59" gradientUnits="userSpaceOnUse">
<stop offset="0.58" stop-color="#F1F2F2"/>
<stop offset="0.91" stop-color="#B4BDBC"/>
</linearGradient>
<clipPath id="clip0_2_6">
<rect width="566" height="622" fill="white" transform="translate(170 159)"/>
</clipPath>
</defs>
</svg>
